<svg xmlns="http://www.w3.org/2000/svg" xmlns:xlink="http://www.w3.org/1999/xlink" width="504" zoomAndPan="magnify" viewBox="0 0 378 95.249998" height="127" preserveAspectRatio="xMidYMid meet" version="1.0"><defs><g/><clipPath id="74ab7dfdd5"><path d="M 1.476562 9 L 101.191406 9 L 101.191406 94.503906 L 1.476562 94.503906 Z M 1.476562 9 " clip-rule="nonzero"/></clipPath><clipPath id="9cabb2e9a0"><path d="M 299 6 L 376.523438 6 L 376.523438 26 L 299 26 Z M 299 6 " clip-rule="nonzero"/></clipPath><clipPath id="c35832f4f1"><path d="M 269.691406 0 L 296 0 L 296 26.789062 L 269.691406 26.789062 Z M 269.691406 0 " clip-rule="nonzero"/></clipPath></defs><g clip-path="url(#74ab7dfdd5)"><path fill="#41038f" d="M 76.261719 67.367188 C 76.261719 71.511719 72.917969 74.867188 68.78125 74.867188 C 64.65625 74.867188 61.3125 71.511719 61.3125 67.367188 C 61.3125 63.226562 64.65625 59.871094 68.78125 59.871094 C 72.917969 59.871094 76.261719 63.226562 76.261719 67.367188 Z M 41.367188 67.367188 C 41.367188 71.511719 38.011719 74.867188 33.886719 74.867188 C 29.75 74.867188 26.40625 71.511719 26.40625 67.367188 C 26.40625 63.226562 29.75 59.871094 33.886719 59.871094 C 38.011719 59.871094 41.367188 63.226562 41.367188 67.367188 Z M 86.238281 79.859375 C 86.230469 85.378906 81.769531 89.851562 76.261719 89.851562 L 26.40625 89.851562 C 20.898438 89.851562 16.4375 85.378906 16.4375 79.859375 L 16.4375 54.875 C 16.4375 49.359375 20.898438 44.886719 26.40625 44.878906 L 76.261719 44.878906 C 81.769531 44.886719 86.230469 49.359375 86.238281 54.875 Z M 93.710938 59.871094 L 91.214844 59.871094 L 91.214844 54.875 C 91.214844 46.597656 84.523438 39.882812 76.261719 39.882812 L 56.316406 39.882812 L 56.316406 28.507812 C 61.089844 25.75 62.726562 19.636719 59.964844 14.851562 C 57.210938 10.070312 51.121094 8.4375 46.351562 11.199219 C 41.578125 13.957031 39.941406 20.070312 42.703125 24.84375 C 43.570312 26.371094 44.835938 27.628906 46.351562 28.507812 L 46.351562 39.882812 L 26.40625 39.882812 C 18.144531 39.882812 11.445312 46.597656 11.445312 54.875 L 11.445312 59.871094 L 8.957031 59.871094 C 4.824219 59.871094 1.476562 63.226562 1.476562 67.367188 C 1.476562 71.511719 4.824219 74.867188 8.957031 74.867188 L 11.445312 74.867188 L 11.445312 79.859375 C 11.445312 88.140625 18.144531 94.855469 26.40625 94.855469 L 76.261719 94.855469 C 84.523438 94.855469 91.214844 88.140625 91.214844 79.859375 L 91.214844 74.867188 L 93.710938 74.867188 C 97.84375 74.867188 101.191406 71.511719 101.191406 67.367188 C 101.191406 63.226562 97.84375 59.871094 93.710938 59.871094 " fill-opacity="1" fill-rule="nonzero"/></g><g clip-path="url(#9cabb2e9a0)"><path fill="#000000" d="M 306.035156 6.441406 C 306.035156 6.441406 305.988281 6.441406 305.972656 6.441406 C 305.953125 6.441406 305.925781 6.441406 305.910156 6.441406 C 301.738281 6.441406 299.140625 9.042969 299.140625 13.230469 L 299.140625 15.488281 C 299.140625 19.675781 301.730469 22.273438 305.910156 22.273438 C 305.925781 22.273438 305.953125 22.273438 305.972656 22.273438 C 305.988281 22.273438 306.015625 22.273438 306.035156 22.273438 C 310.203125 22.273438 312.804688 19.675781 312.804688 15.488281 L 312.804688 13.230469 C 312.804688 9.042969 310.203125 6.441406 306.035156 6.441406 Z M 309.882812 15.648438 C 309.882812 18.398438 308.453125 19.988281 305.972656 20.015625 C 303.488281 19.988281 302.058594 18.398438 302.058594 15.648438 L 302.058594 13.078125 C 302.058594 10.328125 303.488281 8.738281 305.972656 8.710938 C 308.453125 8.738281 309.882812 10.328125 309.882812 13.078125 Z M 346.109375 10.480469 C 346.109375 10.480469 346.058594 10.480469 346.03125 10.480469 C 346.011719 10.480469 346.003906 10.480469 345.984375 10.480469 C 344.40625 10.480469 343.28125 11.015625 342.726562 12.042969 L 342.554688 12.355469 L 342.554688 10.746094 L 339.859375 10.746094 L 339.859375 21.960938 L 342.691406 21.960938 L 342.691406 15.28125 C 342.691406 13.710938 343.539062 12.808594 345.003906 12.78125 C 346.40625 12.808594 347.207031 13.695312 347.207031 15.21875 L 347.207031 21.960938 L 350.039062 21.960938 L 350.039062 14.738281 C 350.039062 12.070312 348.574219 10.480469 346.121094 10.480469 Z M 376.847656 8.898438 L 376.847656 6.753906 L 367.507812 6.753906 L 367.507812 8.898438 L 370.785156 8.898438 L 370.785156 19.808594 L 367.507812 19.808594 L 367.507812 21.953125 L 376.847656 21.953125 L 376.847656 19.808594 L 373.570312 19.808594 L 373.570312 8.898438 Z M 360.101562 6.753906 C 360.101562 6.753906 357.175781 6.753906 357.175781 6.753906 L 351.726562 21.972656 L 354.789062 21.972656 L 355.835938 18.710938 L 361.78125 18.710938 L 361.78125 18.746094 C 361.78125 18.746094 362.828125 21.980469 362.828125 21.980469 L 365.890625 21.980469 L 360.433594 6.765625 L 360.113281 6.765625 Z M 356.503906 16.558594 L 358.800781 9.371094 L 361.078125 16.558594 Z M 321.277344 10.480469 C 321.277344 10.480469 321.230469 10.480469 321.214844 10.480469 C 321.1875 10.480469 321.167969 10.480469 321.152344 10.480469 C 319.730469 10.480469 318.507812 11.066406 317.867188 12.050781 L 317.707031 12.300781 L 317.707031 10.746094 L 315.007812 10.746094 L 315.007812 25.828125 L 317.839844 25.828125 L 317.839844 20.5625 L 318 20.800781 C 318.605469 21.703125 319.792969 22.238281 321.179688 22.238281 C 321.207031 22.238281 321.222656 22.238281 321.25 22.238281 C 321.269531 22.238281 321.285156 22.238281 321.3125 22.238281 C 323.644531 22.238281 325.992188 20.722656 325.992188 17.320312 L 325.992188 15.40625 C 325.992188 12.960938 324.546875 10.488281 321.296875 10.488281 Z M 323.152344 17.175781 C 323.152344 18.960938 322.125 20.070312 320.464844 20.105469 C 318.917969 20.078125 317.839844 18.898438 317.839844 17.222656 L 317.839844 15.53125 C 317.839844 13.835938 318.929688 12.640625 320.492188 12.605469 C 322.132812 12.632812 323.152344 13.746094 323.152344 15.53125 Z M 333.019531 10.480469 C 332.964844 10.480469 332.914062 10.488281 332.859375 10.488281 C 332.804688 10.488281 332.75 10.480469 332.699219 10.480469 C 329.511719 10.480469 327.535156 12.46875 327.535156 15.667969 L 327.535156 17.238281 C 327.535156 20.320312 329.535156 22.230469 332.742188 22.230469 C 332.8125 22.230469 332.875 22.230469 332.9375 22.222656 C 332.984375 22.222656 333.019531 22.230469 333.0625 22.230469 C 335.214844 22.230469 336.714844 21.445312 337.671875 19.820312 L 335.769531 18.722656 C 335.136719 19.660156 334.289062 20.363281 333.074219 20.363281 C 331.449219 20.363281 330.476562 19.363281 330.476562 17.675781 L 330.476562 17.230469 L 338.011719 17.230469 L 338.011719 15.371094 C 338.011719 12.390625 336.054688 10.46875 333.019531 10.46875 Z M 330.464844 15.425781 L 330.464844 15.15625 C 330.464844 13.371094 331.3125 12.371094 332.859375 12.300781 C 334.339844 12.371094 335.234375 13.355469 335.234375 14.96875 L 335.234375 15.417969 C 335.234375 15.417969 330.464844 15.417969 330.464844 15.417969 Z M 330.464844 15.425781 " fill-opacity="1" fill-rule="nonzero"/></g><g clip-path="url(#c35832f4f1)"><path fill="#000000" d="M 293.988281 10.996094 C 294.585938 9.203125 294.378906 7.238281 293.425781 5.601562 C 291.988281 3.101562 289.09375 1.816406 286.273438 2.414062 C 285.011719 1.003906 283.210938 0.199219 281.316406 0.210938 C 278.433594 0.210938 275.871094 2.066406 274.976562 4.808594 C 273.121094 5.191406 271.519531 6.351562 270.582031 7.996094 C 269.136719 10.496094 269.46875 13.640625 271.40625 15.785156 C 270.804688 17.578125 271.011719 19.542969 271.96875 21.167969 C 273.40625 23.675781 276.296875 24.964844 279.128906 24.363281 C 280.378906 25.777344 282.183594 26.589844 284.074219 26.578125 C 286.960938 26.578125 289.523438 24.722656 290.417969 21.980469 C 292.273438 21.597656 293.871094 20.4375 294.800781 18.792969 C 296.257812 16.292969 295.925781 13.148438 293.988281 11.003906 Z M 291.933594 6.46875 C 292.503906 7.46875 292.71875 8.640625 292.523438 9.773438 C 292.488281 9.746094 292.417969 9.710938 292.371094 9.683594 L 287.121094 6.648438 C 286.851562 6.496094 286.523438 6.496094 286.253906 6.648438 L 280.101562 10.203125 L 280.101562 7.59375 L 285.183594 4.65625 C 287.550781 3.289062 290.566406 4.101562 291.933594 6.46875 Z M 280.101562 11.890625 L 282.691406 10.390625 L 285.28125 11.890625 L 285.28125 14.882812 L 282.691406 16.382812 L 280.101562 14.882812 Z M 281.308594 1.933594 C 282.46875 1.933594 283.585938 2.335938 284.476562 3.078125 C 284.441406 3.09375 284.371094 3.140625 284.316406 3.164062 L 279.066406 6.191406 C 278.796875 6.34375 278.636719 6.628906 278.636719 6.941406 L 278.636719 14.050781 L 276.378906 12.746094 L 276.378906 6.871094 C 276.378906 4.140625 278.585938 1.933594 281.316406 1.925781 Z M 272.082031 8.863281 C 272.664062 7.863281 273.566406 7.09375 274.65625 6.691406 L 274.65625 12.933594 C 274.65625 13.246094 274.816406 13.523438 275.082031 13.683594 L 281.226562 17.230469 L 278.960938 18.542969 L 273.886719 15.613281 C 271.53125 14.246094 270.71875 11.230469 272.082031 8.863281 Z M 273.46875 20.320312 C 272.886719 19.328125 272.683594 18.148438 272.878906 17.015625 C 272.914062 17.042969 272.984375 17.078125 273.03125 17.105469 L 278.28125 20.140625 C 278.546875 20.292969 278.878906 20.292969 279.148438 20.140625 L 285.289062 16.585938 L 285.289062 19.195312 L 280.210938 22.125 C 277.84375 23.480469 274.824219 22.675781 273.457031 20.320312 Z M 284.085938 24.855469 C 282.933594 24.855469 281.808594 24.453125 280.921875 23.710938 C 280.960938 23.695312 281.039062 23.648438 281.085938 23.625 L 286.335938 20.597656 C 286.601562 20.445312 286.773438 20.160156 286.765625 19.847656 L 286.765625 12.746094 L 289.023438 14.050781 L 289.023438 19.917969 C 289.023438 22.648438 286.808594 24.863281 284.085938 24.863281 Z M 293.316406 17.925781 C 292.738281 18.925781 291.828125 19.695312 290.746094 20.085938 L 290.746094 13.84375 C 290.746094 13.53125 290.585938 13.246094 290.316406 13.09375 L 284.164062 9.542969 L 286.425781 8.238281 L 291.503906 11.167969 C 293.871094 12.53125 294.675781 15.550781 293.308594 17.917969 Z M 293.316406 17.925781 " fill-opacity="1" fill-rule="nonzero"/></g><g fill="#000000" fill-opacity="1"><g transform="translate(101.081347, 90.474166)"><g><path d="M 32.59375 -8.265625 C 33.8125 -8.265625 34.832031 -7.875 35.65625 -7.09375 C 36.488281 -6.320312 36.90625 -5.320312 36.90625 -4.09375 C 36.90625 -2.914062 36.488281 -1.9375 35.65625 -1.15625 C 34.832031 -0.382812 33.8125 0 32.59375 0 L 9.609375 0 C 8.390625 0 7.363281 -0.410156 6.53125 -1.234375 C 5.707031 -2.054688 5.296875 -3.082031 5.296875 -4.3125 L 5.296875 -45.171875 C 5.296875 -46.390625 5.71875 -47.410156 6.5625 -48.234375 C 7.414062 -49.066406 8.503906 -49.484375 9.828125 -49.484375 C 11.003906 -49.484375 12.015625 -49.066406 12.859375 -48.234375 C 13.710938 -47.410156 14.140625 -46.390625 14.140625 -45.171875 L 14.140625 -8.265625 Z M 32.59375 -8.265625 "/></g></g></g><g fill="#000000" fill-opacity="1"><g transform="translate(140.796645, 90.474166)"><g><path d="M 32.65625 -37.8125 C 33.882812 -37.8125 34.898438 -37.398438 35.703125 -36.578125 C 36.503906 -35.753906 36.90625 -34.726562 36.90625 -33.5 L 36.90625 -15.546875 C 36.90625 -10.460938 35.5 -6.484375 32.6875 -3.609375 C 29.882812 -0.734375 25.894531 0.703125 20.71875 0.703125 C 15.53125 0.703125 11.546875 -0.734375 8.765625 -3.609375 C 5.984375 -6.484375 4.59375 -10.460938 4.59375 -15.546875 L 4.59375 -33.5 C 4.59375 -34.726562 4.992188 -35.753906 5.796875 -36.578125 C 6.597656 -37.398438 7.613281 -37.8125 8.84375 -37.8125 C 10.0625 -37.8125 11.070312 -37.398438 11.875 -36.578125 C 12.675781 -35.753906 13.078125 -34.726562 13.078125 -33.5 L 13.078125 -15.546875 C 13.078125 -12.671875 13.710938 -10.535156 14.984375 -9.140625 C 16.253906 -7.753906 18.164062 -7.0625 20.71875 -7.0625 C 23.300781 -7.0625 25.226562 -7.753906 26.5 -9.140625 C 27.78125 -10.535156 28.421875 -12.671875 28.421875 -15.546875 L 28.421875 -33.5 C 28.421875 -34.726562 28.816406 -35.753906 29.609375 -36.578125 C 30.410156 -37.398438 31.425781 -37.8125 32.65625 -37.8125 Z M 32.65625 -37.8125 "/></g></g></g><g fill="#000000" fill-opacity="1"><g transform="translate(182.278629, 90.474166)"><g><path d="M 21.0625 -38.53125 C 25.070312 -38.53125 28.300781 -37.90625 30.75 -36.65625 C 33.195312 -35.40625 34.421875 -33.742188 34.421875 -31.671875 C 34.421875 -30.628906 34.113281 -29.71875 33.5 -28.9375 C 32.894531 -28.164062 32.097656 -27.78125 31.109375 -27.78125 C 30.347656 -27.78125 29.734375 -27.882812 29.265625 -28.09375 C 28.796875 -28.3125 28.335938 -28.597656 27.890625 -28.953125 C 27.441406 -29.304688 27.003906 -29.597656 26.578125 -29.828125 C 26.109375 -30.066406 25.410156 -30.28125 24.484375 -30.46875 C 23.566406 -30.65625 22.828125 -30.75 22.265625 -30.75 C 18.734375 -30.75 15.960938 -29.648438 13.953125 -27.453125 C 11.953125 -25.265625 10.953125 -22.40625 10.953125 -18.875 C 10.953125 -15.476562 11.960938 -12.660156 13.984375 -10.421875 C 16.015625 -8.179688 18.609375 -7.0625 21.765625 -7.0625 C 24.078125 -7.0625 25.800781 -7.347656 26.9375 -7.921875 C 27.21875 -8.054688 27.601562 -8.300781 28.09375 -8.65625 C 28.59375 -9.007812 29.050781 -9.28125 29.46875 -9.46875 C 29.894531 -9.65625 30.414062 -9.75 31.03125 -9.75 C 32.207031 -9.75 33.132812 -9.375 33.8125 -8.625 C 34.5 -7.875 34.84375 -6.90625 34.84375 -5.71875 C 34.84375 -4.59375 34.179688 -3.535156 32.859375 -2.546875 C 31.546875 -1.554688 29.804688 -0.765625 27.640625 -0.171875 C 25.472656 0.410156 23.164062 0.703125 20.71875 0.703125 C 17.082031 0.703125 13.882812 -0.140625 11.125 -1.828125 C 8.375 -3.523438 6.242188 -5.867188 4.734375 -8.859375 C 3.222656 -11.859375 2.46875 -15.195312 2.46875 -18.875 C 2.46875 -22.6875 3.253906 -26.078125 4.828125 -29.046875 C 6.410156 -32.015625 8.613281 -34.335938 11.4375 -36.015625 C 14.269531 -37.691406 17.476562 -38.53125 21.0625 -38.53125 Z M 21.0625 -38.53125 "/></g></g></g><g fill="#000000" fill-opacity="1"><g transform="translate(218.672525, 90.474166)"><g><path d="M 35.203125 -38.53125 C 36.429688 -38.53125 37.441406 -38.128906 38.234375 -37.328125 C 39.035156 -36.523438 39.4375 -35.488281 39.4375 -34.21875 L 39.4375 -4.3125 C 39.4375 -3.082031 39.035156 -2.054688 38.234375 -1.234375 C 37.441406 -0.410156 36.429688 0 35.203125 0 C 33.972656 0 32.96875 -0.398438 32.1875 -1.203125 C 31.414062 -2.003906 31.007812 -3.015625 30.96875 -4.234375 C 29.78125 -2.867188 28.1875 -1.703125 26.1875 -0.734375 C 24.1875 0.222656 22.078125 0.703125 19.859375 0.703125 C 16.609375 0.703125 13.660156 -0.128906 11.015625 -1.796875 C 8.378906 -3.472656 6.296875 -5.796875 4.765625 -8.765625 C 3.234375 -11.734375 2.46875 -15.101562 2.46875 -18.875 C 2.46875 -22.644531 3.222656 -26.023438 4.734375 -29.015625 C 6.242188 -32.003906 8.304688 -34.335938 10.921875 -36.015625 C 13.535156 -37.691406 16.421875 -38.53125 19.578125 -38.53125 C 21.835938 -38.53125 23.957031 -38.113281 25.9375 -37.28125 C 27.914062 -36.457031 29.59375 -35.410156 30.96875 -34.140625 L 30.96875 -34.21875 C 30.96875 -35.4375 31.363281 -36.457031 32.15625 -37.28125 C 32.957031 -38.113281 33.972656 -38.53125 35.203125 -38.53125 Z M 20.921875 -7.0625 C 23.984375 -7.0625 26.476562 -8.179688 28.40625 -10.421875 C 30.34375 -12.660156 31.3125 -15.476562 31.3125 -18.875 C 31.3125 -22.269531 30.34375 -25.097656 28.40625 -27.359375 C 26.476562 -29.617188 23.984375 -30.75 20.921875 -30.75 C 17.910156 -30.75 15.4375 -29.617188 13.5 -27.359375 C 11.570312 -25.097656 10.609375 -22.269531 10.609375 -18.875 C 10.609375 -15.476562 11.5625 -12.660156 13.46875 -10.421875 C 15.375 -8.179688 17.859375 -7.0625 20.921875 -7.0625 Z M 20.921875 -7.0625 "/></g></g></g><g fill="#000000" fill-opacity="1"><g transform="translate(262.698545, 90.474166)"><g><path d="M 2.40625 -5.859375 C 1.976562 -6.429688 1.765625 -7.140625 1.765625 -7.984375 C 1.765625 -9.210938 2.378906 -10.25 3.609375 -11.09375 C 4.265625 -11.519531 4.945312 -11.734375 5.65625 -11.734375 C 6.644531 -11.734375 7.585938 -11.285156 8.484375 -10.390625 C 9.898438 -8.929688 11.375 -7.847656 12.90625 -7.140625 C 14.4375 -6.429688 16.285156 -6.078125 18.453125 -6.078125 C 22.128906 -6.222656 23.96875 -7.613281 23.96875 -10.25 C 23.96875 -11.613281 23.34375 -12.648438 22.09375 -13.359375 C 20.84375 -14.066406 18.898438 -14.773438 16.265625 -15.484375 C 13.523438 -16.234375 11.296875 -16.984375 9.578125 -17.734375 C 7.859375 -18.492188 6.375 -19.640625 5.125 -21.171875 C 3.875 -22.703125 3.25 -24.765625 3.25 -27.359375 C 3.25 -29.617188 3.894531 -31.582031 5.1875 -33.25 C 6.488281 -34.925781 8.1875 -36.222656 10.28125 -37.140625 C 12.382812 -38.066406 14.613281 -38.53125 16.96875 -38.53125 C 19.363281 -38.53125 21.765625 -38.082031 24.171875 -37.1875 C 26.578125 -36.289062 28.460938 -34.96875 29.828125 -33.21875 C 30.441406 -32.46875 30.75 -31.617188 30.75 -30.671875 C 30.75 -29.585938 30.300781 -28.695312 29.40625 -28 C 28.75 -27.476562 27.992188 -27.21875 27.140625 -27.21875 C 26.109375 -27.21875 25.257812 -27.546875 24.59375 -28.203125 C 23.75 -29.242188 22.65625 -30.066406 21.3125 -30.671875 C 19.96875 -31.285156 18.445312 -31.59375 16.75 -31.59375 C 13.164062 -31.59375 11.375 -30.296875 11.375 -27.703125 C 11.375 -26.671875 11.703125 -25.835938 12.359375 -25.203125 C 13.023438 -24.566406 13.863281 -24.070312 14.875 -23.71875 C 15.894531 -23.363281 17.320312 -22.925781 19.15625 -22.40625 C 21.695312 -21.695312 23.816406 -20.960938 25.515625 -20.203125 C 27.210938 -19.453125 28.648438 -18.300781 29.828125 -16.75 C 31.003906 -15.195312 31.59375 -13.148438 31.59375 -10.609375 C 31.59375 -8.296875 30.910156 -6.28125 29.546875 -4.5625 C 28.179688 -2.84375 26.425781 -1.535156 24.28125 -0.640625 C 22.132812 0.253906 19.929688 0.703125 17.671875 0.703125 C 14.554688 0.703125 11.65625 0.1875 8.96875 -0.84375 C 6.289062 -1.882812 4.101562 -3.554688 2.40625 -5.859375 Z M 2.40625 -5.859375 "/></g></g></g><g fill="#000000" fill-opacity="1"><g transform="translate(296.760421, 90.474166)"><g><path d="M 8.34375 -0.078125 C 6.976562 -0.078125 5.925781 -0.441406 5.1875 -1.171875 C 4.457031 -1.898438 4.09375 -2.945312 4.09375 -4.3125 L 4.09375 -5.515625 C 4.09375 -6.878906 4.457031 -7.925781 5.1875 -8.65625 C 5.925781 -9.382812 6.976562 -9.75 8.34375 -9.75 L 9.265625 -9.75 C 10.628906 -9.75 11.675781 -9.382812 12.40625 -8.65625 C 13.132812 -7.925781 13.5 -6.878906 13.5 -5.515625 L 13.5 -4.3125 C 13.5 -2.945312 13.132812 -1.898438 12.40625 -1.171875 C 11.675781 -0.441406 10.628906 -0.078125 9.265625 -0.078125 Z M 8.34375 -0.078125 "/></g></g></g><g fill="#000000" fill-opacity="1"><g transform="translate(314.356691, 90.474166)"><g><path d="M 12.578125 -4.3125 C 12.578125 -3.082031 12.175781 -2.054688 11.375 -1.234375 C 10.570312 -0.410156 9.5625 0 8.34375 0 C 7.113281 0 6.097656 -0.410156 5.296875 -1.234375 C 4.492188 -2.054688 4.09375 -3.082031 4.09375 -4.3125 L 4.09375 -33.5 C 4.09375 -34.726562 4.492188 -35.753906 5.296875 -36.578125 C 6.097656 -37.398438 7.113281 -37.8125 8.34375 -37.8125 C 9.5625 -37.8125 10.570312 -37.398438 11.375 -36.578125 C 12.175781 -35.753906 12.578125 -34.726562 12.578125 -33.5 Z M 8.265625 -42.40625 C 6.660156 -42.40625 5.53125 -42.664062 4.875 -43.1875 C 4.21875 -43.707031 3.890625 -44.628906 3.890625 -45.953125 L 3.890625 -47.296875 C 3.890625 -48.609375 4.238281 -49.523438 4.9375 -50.046875 C 5.644531 -50.566406 6.78125 -50.828125 8.34375 -50.828125 C 9.988281 -50.828125 11.140625 -50.566406 11.796875 -50.046875 C 12.460938 -49.523438 12.796875 -48.609375 12.796875 -47.296875 L 12.796875 -45.953125 C 12.796875 -44.578125 12.453125 -43.640625 11.765625 -43.140625 C 11.085938 -42.648438 9.921875 -42.40625 8.265625 -42.40625 Z M 8.265625 -42.40625 "/></g></g></g><g fill="#000000" fill-opacity="1"><g transform="translate(331.034291, 90.474166)"><g><path d="M 40.921875 -18.875 C 40.921875 -15.101562 40.070312 -11.71875 38.375 -8.71875 C 36.6875 -5.726562 34.367188 -3.410156 31.421875 -1.765625 C 28.472656 -0.117188 25.234375 0.703125 21.703125 0.703125 C 18.117188 0.703125 14.863281 -0.117188 11.9375 -1.765625 C 9.019531 -3.410156 6.710938 -5.726562 5.015625 -8.71875 C 3.316406 -11.71875 2.46875 -15.101562 2.46875 -18.875 C 2.46875 -22.644531 3.316406 -26.023438 5.015625 -29.015625 C 6.710938 -32.003906 9.019531 -34.335938 11.9375 -36.015625 C 14.863281 -37.691406 18.117188 -38.53125 21.703125 -38.53125 C 25.234375 -38.53125 28.472656 -37.691406 31.421875 -36.015625 C 34.367188 -34.335938 36.6875 -32.003906 38.375 -29.015625 C 40.070312 -26.023438 40.921875 -22.644531 40.921875 -18.875 Z M 32.453125 -18.875 C 32.453125 -21.1875 31.96875 -23.25 31 -25.0625 C 30.03125 -26.875 28.734375 -28.273438 27.109375 -29.265625 C 25.484375 -30.253906 23.679688 -30.75 21.703125 -30.75 C 19.722656 -30.75 17.921875 -30.253906 16.296875 -29.265625 C 14.671875 -28.273438 13.375 -26.875 12.40625 -25.0625 C 11.4375 -23.25 10.953125 -21.1875 10.953125 -18.875 C 10.953125 -16.5625 11.4375 -14.507812 12.40625 -12.71875 C 13.375 -10.925781 14.671875 -9.535156 16.296875 -8.546875 C 17.921875 -7.554688 19.722656 -7.0625 21.703125 -7.0625 C 23.679688 -7.0625 25.484375 -7.554688 27.109375 -8.546875 C 28.734375 -9.535156 30.03125 -10.925781 31 -12.71875 C 31.96875 -14.507812 32.453125 -16.5625 32.453125 -18.875 Z M 32.453125 -18.875 "/></g></g></g></svg>